<svg width="21" height="20" viewBox="0 0 21 20" fill="none" xmlns="http://www.w3.org/2000/svg">
<g id="icon/eye" clip-path="url(#clip0_2291_236)">
<path id="Vector" d="M20.8513 9.4931C18.9683 5.81914 15.2406 3.33337 10.9721 3.33337C6.70375 3.33337 2.97493 5.82087 1.09298 9.49344C1.01355 9.65056 0.972168 9.82416 0.972168 10.0002C0.972168 10.1763 1.01355 10.3499 1.09298 10.507C2.97597 14.1809 6.70375 16.6667 10.9721 16.6667C15.2406 16.6667 18.9694 14.1792 20.8513 10.5066C20.9307 10.3495 20.9721 10.1759 20.9721 9.99987C20.9721 9.82381 20.9307 9.65022 20.8513 9.4931ZM10.9721 15C9.98324 15 9.01654 14.7068 8.1943 14.1574C7.37205 13.608 6.73119 12.8271 6.35275 11.9135C5.97431 10.9998 5.8753 9.99449 6.06822 9.02459C6.26115 8.05468 6.73735 7.16377 7.43661 6.46451C8.13588 5.76524 9.02679 5.28904 9.9967 5.09611C10.9666 4.90319 11.9719 5.0022 12.8856 5.38064C13.7992 5.75908 14.5801 6.39994 15.1295 7.22219C15.6789 8.04443 15.9721 9.01113 15.9721 10C15.9725 10.6567 15.8434 11.3071 15.5922 11.9138C15.341 12.5206 14.9728 13.0719 14.5084 13.5363C14.044 14.0006 13.4927 14.3689 12.8859 14.6201C12.2792 14.8712 11.6288 15.0004 10.9721 15ZM10.9721 6.66671C10.6746 6.67087 10.379 6.71513 10.0933 6.7983C10.3288 7.11833 10.4418 7.51215 10.4119 7.90835C10.3819 8.30455 10.2109 8.6769 9.92996 8.95785C9.649 9.23881 9.27666 9.40978 8.88046 9.43975C8.48426 9.46972 8.09044 9.35671 7.77041 9.12122C7.58818 9.79261 7.62108 10.5042 7.86447 11.1559C8.10786 11.8077 8.5495 12.3666 9.12722 12.7542C9.70494 13.1418 10.3897 13.3384 11.085 13.3164C11.7803 13.2945 12.4513 13.055 13.0034 12.6317C13.5555 12.2085 13.9609 11.6228 14.1627 10.957C14.3645 10.2912 14.3524 9.57892 14.1282 8.92038C13.9039 8.26183 13.4788 7.69019 12.9126 7.28591C12.3465 6.88163 11.6678 6.66507 10.9721 6.66671Z" fill="black" fill-opacity="0.87"/>
</g>
<defs>
<clipPath id="clip0_2291_236">
<rect width="20" height="20" fill="white" transform="translate(0.972168)"/>
</clipPath>
</defs>
</svg>
