<svg width="30" height="31" viewBox="0 0 30 31" fill="none" xmlns="http://www.w3.org/2000/svg">
<g clip-path="url(#clip0_1126_2612)">
<path d="M15.587 0.802734C10.9101 0.802734 7.88083 2.71893 5.50257 6.13629C5.07114 6.75621 5.20415 7.60617 5.80597 8.0625L8.33359 9.97904C8.94138 10.4399 9.80616 10.3321 10.282 9.736C11.7497 7.89727 12.8384 6.83859 15.131 6.83859C16.9336 6.83859 19.1632 7.99869 19.1632 9.74666C19.1632 11.0681 18.0724 11.7467 16.2926 12.7446C14.217 13.9082 11.4703 15.3564 11.4703 18.9792V19.5527C11.4703 20.3294 12.0999 20.959 12.8766 20.959H17.1229C17.8996 20.959 18.5292 20.3294 18.5292 19.5527V19.2145C18.5292 16.7031 25.8691 16.5986 25.8691 9.80273C25.8692 4.68492 20.5605 0.802734 15.587 0.802734ZM14.9998 22.6851C12.7617 22.6851 10.9409 24.5059 10.9409 26.7439C10.9409 28.9819 12.7617 30.8027 14.9998 30.8027C17.2378 30.8027 19.0586 28.9819 19.0586 26.7439C19.0586 24.5058 17.2378 22.6851 14.9998 22.6851Z" fill="red"/>
</g>
<defs>
<clipPath id="clip0_1126_2612">
<rect width="30" height="30" fill="white" transform="translate(0 0.802734)"/>
</clipPath>
</defs>
</svg>