<svg width="21" height="20" viewBox="0 0 21 20" fill="none" xmlns="http://www.w3.org/2000/svg">
<g id="icon/trash" clip-path="url(#clip0_149_74)">
<path id="Vector" d="M19.097 1.25001H14.4095L14.0424 0.519538C13.9646 0.363372 13.8448 0.232008 13.6964 0.140225C13.548 0.0484421 13.377 -0.00011828 13.2025 6.84872e-06H8.73767C8.5636 -0.000662313 8.39286 0.047717 8.24502 0.139602C8.09717 0.231487 7.9782 0.363161 7.90173 0.519538L7.53455 1.25001H2.84705C2.68129 1.25001 2.52231 1.31585 2.4051 1.43306C2.28789 1.55028 2.22205 1.70925 2.22205 1.87501V3.12501C2.22205 3.29077 2.28789 3.44974 2.4051 3.56695C2.52231 3.68416 2.68129 3.75001 2.84705 3.75001H19.097C19.2628 3.75001 19.4218 3.68416 19.539 3.56695C19.6562 3.44974 19.722 3.29077 19.722 3.12501V1.87501C19.722 1.70925 19.6562 1.55028 19.539 1.43306C19.4218 1.31585 19.2628 1.25001 19.097 1.25001ZM4.30017 18.2422C4.32998 18.7182 4.54008 19.165 4.88769 19.4916C5.23531 19.8181 5.69431 19.9999 6.17126 20H15.7728C16.2498 19.9999 16.7088 19.8181 17.0564 19.4916C17.404 19.165 17.6141 18.7182 17.6439 18.2422L18.472 5.00001H3.47205L4.30017 18.2422Z" fill="#DF5353"/>
</g>
<defs>
<clipPath id="clip0_149_74">
<rect width="20" height="20" fill="white" transform="translate(0.972046)"/>
</clipPath>
</defs>
</svg>
